HIERARCHY
ROOT root
{
	OFFSET 0.000000 0.000000 0.000000
	CHANNELS 6 Xposition Yposition Zposition Zrotation Yrotation Xrotation
	JOINT lhip
	{
		OFFSET 0.058581 -0.082280 -0.017664
		CHANNELS 3 Zrotation Yrotation Xrotation
		JOINT lknee
		{
			OFFSET 0.043451 -0.386469 0.008037
			CHANNELS 3 Zrotation Yrotation Xrotation
			JOINT lankle
			{
				OFFSET -0.014790 -0.426874 -0.037428
				CHANNELS 3 Zrotation Yrotation Xrotation
				JOINT ltoe
				{
					OFFSET 0.041054 -0.060286 0.122042
					CHANNELS 3 Zrotation Yrotation Xrotation
					End Site
					{
						OFFSET 0.000000 0.000000 0.000000
					}
				}
			}
		}
	}
	JOINT rhip
	{
		OFFSET -0.060310 -0.090513 -0.013543
		CHANNELS 3 Zrotation Yrotation Xrotation
		JOINT rknee
		{
			OFFSET -0.043257 -0.383688 -0.004843
			CHANNELS 3 Zrotation Yrotation Xrotation
			JOINT rankle
			{
				OFFSET 0.019056 -0.420046 -0.034562
				CHANNELS 3 Zrotation Yrotation Xrotation
				JOINT rtoe
				{
					OFFSET -0.034840 -0.062106 0.130323
					CHANNELS 3 Zrotation Yrotation Xrotation
					End Site
					{
						OFFSET 0.000000 0.000000 0.000000
					}
				}
			}
		}
	}
	JOINT lowerback
	{
		OFFSET 0.004439 0.124404 -0.038385
		CHANNELS 3 Zrotation Yrotation Xrotation
		JOINT upperback
		{
			OFFSET 0.004488 0.137956 0.026820
			CHANNELS 3 Zrotation Yrotation Xrotation
			JOINT chest
			{
				OFFSET -0.002265 0.056032 0.002855
				CHANNELS 3 Zrotation Yrotation Xrotation
				JOINT lowerneck
				{
					OFFSET -0.013390 0.211636 -0.033468
					CHANNELS 3 Zrotation Yrotation Xrotation
					JOINT upperneck
					{
						OFFSET 0.010113 0.088937 0.050410
						CHANNELS 3 Zrotation Yrotation Xrotation
						End Site
						{
							OFFSET 0.000000 0.000000 0.000000
						}
					}
				}
				JOINT lclavicle
				{
					OFFSET 0.071702 0.114000 -0.018898
					CHANNELS 3 Zrotation Yrotation Xrotation
					JOINT lshoulder
					{
						OFFSET 0.122921 0.045205 -0.019046
						CHANNELS 3 Zrotation Yrotation Xrotation
						JOINT lelbow
						{
							OFFSET 0.255332 -0.015649 -0.022946
							CHANNELS 3 Zrotation Yrotation Xrotation
							JOINT lwrist
							{
								OFFSET 0.265709 0.012698 -0.007375
								CHANNELS 3 Zrotation Yrotation Xrotation
								End Site
								{
									OFFSET 0.000000 0.000000 0.000000
								}
							}
						}
					}
				}
				JOINT rclavicle
				{
					OFFSET -0.082954 0.112472 -0.023707
					CHANNELS 3 Zrotation Yrotation Xrotation
					JOINT rshoulder
					{
						OFFSET -0.113228 0.046853 -0.008472
						CHANNELS 3 Zrotation Yrotation Xrotation
						JOINT relbow
						{
							OFFSET -0.260127 -0.014369 -0.031269
							CHANNELS 3 Zrotation Yrotation Xrotation
							JOINT rwrist
							{
								OFFSET -0.269108 0.006794 -0.006027
								CHANNELS 3 Zrotation Yrotation Xrotation
								End Site
								{
									OFFSET 0.000000 0.000000 0.000000
								}
							}
						}
					}
				}
			}
		}
	}
}
MOTION
Frames: 8
Frame Time: 0.033333
-0.036808 2.153771 0.985137 6.726460 1.518913 87.884509 20.162141 10.822444 -13.920525 1.001518 14.125693 13.757452 1.077252 13.502132 8.387494 0.000000 -0.000000 0.000000 4.799857 -6.199365 -2.959237 8.134374 -9.235836 9.802775 -5.729495 -10.357363 -14.834617 0.000000 -0.000000 0.000000 1.040824 3.374428 17.440897 1.842748 -2.041255 -3.023966 1.324125 -1.182784 -3.591769 8.232088 -13.956797 -7.302340 2.913920 -15.412736 10.036430 -31.937073 -2.161797 -0.360316 -47.506835 -10.418089 10.496986 13.437618 -24.375097 -1.677952 2.940348 -1.650270 -3.618441 23.382412 3.456996 0.371979 46.763267 2.790438 12.763355 -9.476742 25.671468 1.092257 1.400354 1.866062 -4.528182 
-0.036737 2.153659 0.985267 6.607814 1.509628 87.931145 20.115285 10.843810 -13.882065 1.061047 14.143278 13.683304 1.137837 13.537880 8.424623 0.000000 -0.000000 0.000000 4.764907 -6.030476 -2.987856 8.202041 -9.102883 9.814765 -5.625585 -10.333928 -14.683500 0.000000 -0.000000 0.000000 1.094101 3.446208 17.418605 1.839212 -2.054577 -3.036117 1.288316 -1.163091 -3.580961 8.276783 -14.068791 -7.414146 2.970738 -15.377045 10.006827 -32.003434 -2.178998 -0.388032 -47.488458 -10.460880 10.583992 13.452940 -24.349878 -1.727273 2.922565 -1.644463 -3.607046 23.396862 3.435205 0.390630 46.732402 2.760148 12.790910 -9.524795 25.669952 0.954163 1.343938 1.852749 -4.581994 
-0.038989 2.148968 0.983305 5.937437 1.287002 88.111864 20.480209 11.325249 -13.131624 0.555053 14.305939 13.126904 1.485563 13.343784 8.453786 0.000000 -0.000000 0.000000 4.296870 -5.937862 -2.414423 8.702536 -8.003608 9.206045 -4.670319 -9.264872 -13.414131 0.000000 -0.000000 0.000000 -0.230785 3.440279 16.261567 2.265176 -1.508940 -2.447756 1.759102 -1.219378 -3.101600 8.567021 -13.802609 -7.481759 3.003149 -15.072077 9.640469 -30.896047 -1.829221 -0.212501 -48.745418 -10.833483 10.569939 14.107179 -24.634569 -1.912148 1.570970 -1.630220 -3.873954 23.458584 3.618929 1.004971 46.806545 3.240668 12.307429 -10.179710 25.657118 0.607570 2.352127 1.783393 -4.219535 
-0.040626 2.147475 0.981299 5.752422 1.087161 88.403068 20.418327 11.359257 -13.371173 0.497024 14.271786 13.328040 1.635323 13.367531 8.160448 0.000000 -0.000000 0.000000 4.112855 -5.670036 -2.276417 9.017457 -7.520825 8.363750 -4.184741 -9.531253 -12.868237 0.000000 -0.000000 0.000000 -1.048100 3.339370 16.195404 2.463233 -1.269262 -3.075279 2.143738 -1.348578 -2.547807 8.852486 -13.850949 -8.126231 2.828548 -15.202945 9.977145 -30.278290 -1.763558 -0.055321 -49.496127 -11.333000 10.860759 14.301190 -24.293592 -1.567862 3.066812 -1.324542 -4.259678 23.456267 3.576669 0.914163 46.990268 3.693459 12.605436 -10.399639 24.971255 0.456687 0.504263 1.104174 -4.620042 
-0.041109 2.146854 0.980657 5.675960 1.066911 88.490097 20.460431 11.364595 -13.408821 0.403966 14.268346 13.381063 1.705802 13.319553 8.067376 0.000000 -0.000000 0.000000 4.113793 -5.630154 -2.196444 9.120426 -7.333449 8.106104 -4.115728 -9.493246 -12.839418 0.000000 -0.000000 0.000000 -1.161950 3.354656 16.136122 2.526877 -1.286147 -3.143133 2.213284 -1.389458 -2.485879 8.917437 -13.880148 -8.234108 2.756506 -15.296250 9.991758 -30.216637 -1.776959 0.030211 -49.584284 -11.437711 10.823502 14.193186 -24.327096 -1.455693 2.941680 -1.305867 -4.392367 23.489141 3.566431 0.899997 46.987459 3.797026 12.618166 -10.537640 24.964348 0.492271 0.195900 0.968998 -4.419289 
-0.042257 2.145549 0.979278 5.505472 0.917293 88.751030 20.320841 11.188234 -13.716395 0.215947 13.897717 13.856215 2.370790 13.330394 7.138407 0.000000 -0.000000 0.000000 4.218296 -5.585908 -2.274752 9.093293 -7.295840 7.444361 -3.966386 -10.166367 -13.939100 0.000000 -0.000000 0.000000 -1.453864 3.346007 16.159947 2.568201 -1.300707 -3.591361 2.324657 -1.437261 -2.327383 8.850370 -13.881814 -8.523464 2.738494 -15.194925 10.198502 -29.968086 -1.708618 -0.001069 -49.808961 -11.370469 10.914374 14.335439 -24.354707 -1.495918 2.961650 -1.189661 -4.758098 23.406693 3.464174 0.699808 47.271372 3.786768 12.731524 -10.514230 25.284585 0.715002 0.555464 1.102394 -4.696738 
-0.043500 2.143970 0.978442 5.340445 0.906576 88.845061 20.264212 10.800338 -14.363153 0.019832 12.933162 15.563696 3.271716 13.386187 4.804657 0.000000 -0.000000 0.000000 4.364598 -5.578172 -2.353633 9.101530 -7.179799 7.512384 -4.013829 -10.267796 -14.704672 0.000000 -0.000000 0.000000 -1.532932 3.368916 16.440260 2.648117 -1.470640 -4.065866 2.393734 -1.411795 -2.265265 8.678668 -13.703830 -8.518896 2.866883 -14.952107 10.229008 -29.877823 -1.686613 -0.220079 -49.848447 -11.028906 10.938512 14.359612 -24.455267 -1.633340 2.628304 -1.189197 -4.913234 23.424009 3.531280 0.514868 47.411032 3.572334 12.887747 -10.206604 25.847080 1.011555 1.810195 1.914507 -5.142981 
-0.044805 2.141550 0.977774 5.141717 0.869511 88.644712 20.159036 9.971811 -15.424173 -0.173733 11.591225 18.432380 3.666944 13.611613 1.156188 0.000000 -0.000000 0.000000 4.409937 -5.406732 -1.979561 9.206602 -6.865108 7.577040 -4.009028 -10.495113 -15.280260 0.000000 -0.000000 0.000000 -1.625077 3.418493 16.866063 2.718779 -1.660714 -4.407456 2.470928 -1.383813 -2.075550 8.785552 -13.460624 -8.784914 2.804679 -14.795067 10.355913 -29.933020 -1.699670 -0.167831 -49.739701 -10.915993 10.753582 14.278875 -24.504166 -1.325684 3.688821 -1.227266 -5.286410 23.536703 3.781065 0.569632 47.634416 3.512266 12.870493 -10.561796 25.410391 0.909950 -0.130852 1.338627 -5.330982 
